# xmcd CD database file
#
# Track frame offsets:
#	150
#	38464
#	61109
#	84509
#	106034
#	135533
#	170258
#	186908
#	206366
#	233173
#	250001
#	263068
#	290673
#
# Disc length: 4178 seconds
#
# Revision: 0
# Processed by: cddbd v1.5.2PL0 Copyright (c) Steve Scherf et al.
# Submitted via: CDex 1.76
#
DISCID=a310500d
DTITLE=Steven Halpern - ADHD Music with Subliminal Affirmations  
DYEAR=2017
DGENRE=New Age
TTITLE0=ADHD Music with Subliminal Affirmations (part 1)
TTITLE1=Steven Halpern, Jorge Alfano - ADHD Music with Subliminal Affirmations (part 2)
TTITLE2=Steven Halpern - ADHD Music with Subliminal Affirmations (part 3)
TTITLE3=ADHD Music with Subliminal Affirmations (part 4)
TTITLE4=Steven Halpern, David Darling - ADHD Music with Subliminal Affirmations (part 5)
TTITLE5=Steven Halpern - ADHD Music with Subliminal Affirmations (part 6)
TTITLE6=Steven Halpern, Georgia Kelly - ADHD Music with Subliminal Affirmations (part 7)
TTITLE7=Steven Halpern - ADHD Music with Subliminal Affirmations (part 8)
TTITLE8=ADHD Music with Subliminal Affirmations (part 9)
TTITLE9=Steven Halpern, Kat Epple, Bob Stohl - ADHD Music with Subliminal Affirmations (part 10)
TTITLE10=Steven Halpern - ADHD Music with Subliminal Affirmations (part 11)
TTITLE11=ADHD Music with Subliminal Affirmations (part 12)
TTITLE12=ADHD Music with Subliminal Affirmations (part 13)
EXTD=YEAR: 2017
EXTT0=
EXTT1=
EXTT2=
EXTT3=
EXTT4=
EXTT5=
EXTT6=
EXTT7=
EXTT8=
EXTT9=
EXTT10=
EXTT11=
EXTT12=
PLAYORDER=
